<?xml version="1.0" encoding="UTF-8" standalone="no"?>
<!DOCTYPE svg PUBLIC "-//W3C//DTD SVG 1.1//EN" "http://www.w3.org/Graphics/SVG/1.1/DTD/svg11.dtd">
<svg width="100%" height="100%" viewBox="0 0 3300 1087" version="1.1" xmlns="http://www.w3.org/2000/svg" xmlns:xlink="http://www.w3.org/1999/xlink" xml:space="preserve" xmlns:serif="http://www.serif.com/" style="fill-rule:evenodd;clip-rule:evenodd;stroke-linecap:round;stroke-linejoin:round;stroke-miterlimit:1.5;">
    <g transform="matrix(1,0,0,1,-3515.86,0)">
        <g id="Light" transform="matrix(1,0,0,0.426266,3515.86,0)">
            <rect x="0" y="0" width="3300" height="2550" style="fill:none;"/>
            <g id="Light1" serif:id="Light" transform="matrix(1,0,0,2.34595,-22.607,-114.613)">
                <g transform="matrix(0.92904,0,0,0.948257,-101.315,-782.551)">
                    <path d="M830.555,1017.88L417.554,1886.28L901.903,1886.28C901.903,1886.28 1026.06,1903.22 1020.82,1767.37" style="fill:none;stroke:white;stroke-width:66.58px;"/>
                    <g transform="matrix(-1,0,0,1,1668.92,13.9948)">
                        <path d="M830.555,1017.88L428.496,1863.27" style="fill:none;stroke:white;stroke-width:66.58px;"/>
                    </g>
                    <g transform="matrix(1,0,0,-1,-1.27451,2899.84)">
                        <path d="M830.555,1017.88L417.554,1886.28L901.903,1886.28C901.903,1886.28 1026.06,1903.22 1020.82,1767.37" style="fill:none;stroke:white;stroke-width:66.58px;"/>
                    </g>
                    <g transform="matrix(-1,0,0,-1,1667.64,2885.85)">
                        <path d="M830.555,1017.88L428.496,1863.27" style="fill:none;stroke:white;stroke-width:66.58px;"/>
                    </g>
                </g>
                <g transform="matrix(1.03911,0,0,1.03911,-390.337,-1014.85)">
                    <g transform="matrix(500,0,0,500,3380.46,1647.79)">
                    </g>
                    <text x="1450.77px" y="1647.79px" style="font-family:'OriyaMN', 'Oriya MN';font-size:500px;fill:white;">V<tspan x="1737.88px 2061.85px " y="1647.79px 1647.79px ">AL</tspan>ORA</text>
                </g>
                <g transform="matrix(1.03911,0,0,1.03911,-130.907,-910.008)">
                    <g transform="matrix(150,0,0,150,3119.84,1723.7)">
                    </g>
                    <text x="1309.15px" y="1723.7px" style="font-family:'OriyaMN', 'Oriya MN';font-size:150px;fill:white;">softwar<tspan x="1848.87px 1937.2px " y="1723.7px 1723.7px ">e </tspan>&amp; cybersecurity</text>
                </g>
                <g transform="matrix(1.23861,0,0,1.23861,-341.106,-938.611)">
                    <path d="M822.3,916.242L661.489,1248.37L815.618,1570.62L968.348,1247.27L822.3,916.242Z" style="fill:rgb(137,151,225);"/>
                </g>
            </g>
        </g>
    </g>
</svg>
